<svg xmlns="http://www.w3.org/2000/svg" xmlns:xlink="http://www.w3.org/1999/xlink" version="1.1" x="0px" y="0px" viewBox="0 0 95 95" stroke="#fff" fill="transparent" enable-background="new 0 0 95 95" xml:space="preserve"><g><path d="M73.166,42.415c5.412,6.931,7.47,7.184,14.398,1.77c-6.929,5.414-7.18,7.47-1.77,14.4c-5.41-6.931-7.47-7.184-14.398-1.77   C78.325,51.401,78.578,49.346,73.166,42.415z"/></g><g><path d="M25.58,31.187c-5.812,10.316-5.278,11.215,6.559,11.084c-11.837,0.131-12.35,1.042-6.317,11.228   c-6.032-10.187-7.075-10.176-12.884,0.145c5.809-10.321,5.277-11.221-6.562-11.088c11.839-0.133,12.348-1.042,6.318-11.23   C18.724,41.514,19.769,41.503,25.58,31.187z"/></g><g><path d="M62.551,43.729c-10.702,10.249-10.393,11.52,3.836,15.665c-14.229-4.146-15.17-3.243-11.649,11.149   c-3.521-14.393-4.779-14.757-15.481-4.508c10.702-10.249,10.394-11.52-3.838-15.658c14.231,4.139,15.173,3.236,11.653-11.158   C50.591,53.614,51.849,53.979,62.551,43.729z"/></g><g><path d="M56.145,19.23c13.071,1.893,15.57,0.029,17.457-13.041c-1.887,13.069-0.029,15.562,13.047,17.457   c-13.076-1.895-15.57-0.029-17.462,13.044C71.078,23.618,69.216,21.123,56.145,19.23z"/></g><g><path d="M9.874,65.88c12.326,4.743,15.175,3.479,19.911-8.85c-4.736,12.328-3.473,15.17,8.855,19.911   c-12.328-4.741-15.179-3.473-19.913,8.854C23.462,73.469,22.2,70.623,9.874,65.88z"/></g><g><path d="M47.675,28.179c2.767,0.875,3.374,0.559,4.246-2.207c-0.872,2.765-0.558,3.372,2.208,4.247   c-2.766-0.875-3.373-0.562-4.246,2.206C50.756,29.658,50.441,29.054,47.675,28.179z"/></g><g><path d="M76.253,75.769c2.766,0.874,3.373,0.56,4.247-2.207c-0.874,2.767-0.559,3.373,2.208,4.247   c-2.767-0.874-3.374-0.561-4.247,2.207C79.334,77.248,79.019,76.643,76.253,75.769z"/></g><g><path d="M35.413,87.295c2.766,0.874,3.373,0.56,4.247-2.207c-0.874,2.767-0.559,3.373,2.208,4.247   c-2.767-0.874-3.374-0.561-4.247,2.207C38.494,88.774,38.179,88.169,35.413,87.295z"/></g><g><path d="M12.803,17.193c2.766,0.874,3.373,0.56,4.247-2.207c-0.874,2.767-0.559,3.373,2.208,4.247   c-2.767-0.874-3.374-0.561-4.247,2.207C15.884,18.673,15.568,18.067,12.803,17.193z"/></g><g><path d="M31.37,4.803c5.158,5.236,6.891,5.25,12.126,0.092c-5.235,5.159-5.247,6.892-0.091,12.123   c-5.156-5.23-6.892-5.247-12.124-0.086C36.514,11.771,36.528,10.039,31.37,4.803z"/></g><g><path d="M52.729,76.101c5.158,5.236,6.891,5.25,12.126,0.092c-5.235,5.158-5.247,6.893-0.091,12.123   c-5.156-5.23-6.892-5.248-12.124-0.087C57.872,83.067,57.887,81.337,52.729,76.101z"/></g></svg>