<svg xmlns="http://www.w3.org/2000/svg" xmlns:xlink="http://www.w3.org/1999/xlink" version="1.1" fill="#fff" x="0px" y="0px" viewBox="0 0 100 105" enable-background="new 0 0 100 100" xml:space="preserve"><g><path d="M-29.499,36.518c-0.352-5.939-6.729-13.601-13.021-13.601c-0.707,0-1.388,0.093-2.042,0.277   c0.905-2.591,0.752-5.465-0.513-8.172c-1.937-4.145-5.909-6.719-10.371-6.721c-8.122,0-11.885,7.613-14.446,14.425   c-1.709-5.705-6.635-8.305-11.441-8.305c-4.046,0-7.914,1.819-10.348,4.865c-1.666,2.086-3.373,5.606-2.687,10.916   c-5.442-2.36-10.474-0.735-13.267,4.103c-2.411,4.176-2.593,9.693-0.443,13.416c1.579,2.734,4.285,4.24,7.621,4.24   c0,0,0.001,0,0.001,0c1.756,0,3.698-0.407,5.784-1.21c0.66,4.627,4.219,8.287,8.192,8.287c2.198,0,4.213-1.14,5.78-3.241   c1.957,2.178,4.562,3.32,7.611,3.32c6.213,0,12.992-4.691,16.246-9.359c2.503,1.809,5.654,2.759,9.185,2.759   c5.392,0,10.899-2.29,14.372-5.975C-30.589,43.68-29.28,40.214-29.499,36.518z M-34.742,45.17   c-3.107,3.297-8.057,5.346-12.916,5.346c-3.48,0-6.515-1.031-8.775-2.982c-0.225-0.194-0.523-0.277-0.814-0.23   c-0.292,0.047-0.548,0.222-0.699,0.477c-2.672,4.508-9.395,9.334-15.142,9.335c-2.899,0-5.209-1.21-6.865-3.598   c-0.188-0.27-0.495-0.43-0.822-0.43c-0.014,0-0.028,0-0.042,0.001c-0.343,0.015-0.654,0.204-0.825,0.501   c-1.295,2.254-2.968,3.446-4.837,3.446c-3.092,0-5.965-3.259-6.273-7.117c-0.019-0.237-0.122-0.459-0.29-0.627l-0.5-0.5   c-0.29-0.29-0.724-0.372-1.1-0.213c-2.146,0.916-4.103,1.38-5.814,1.381c0,0,0,0-0.001,0c-2.628,0-4.665-1.121-5.889-3.24   c-1.781-3.084-1.595-7.885,0.443-11.416c0.904-1.567,2.976-4.195,6.684-4.195c1.758,0,3.671,0.59,5.687,1.754   c0.344,0.198,0.772,0.175,1.093-0.061c0.32-0.236,0.47-0.639,0.382-1.026c-1.018-4.491-0.348-8.378,1.939-11.242   c2.057-2.576,5.341-4.114,8.785-4.114c4.486,0,9.812,2.706,10.061,10.331c0.016,0.48,0.37,0.881,0.845,0.955   c0.477,0.076,0.935-0.199,1.096-0.651l0.25-0.699c2.413-6.775,5.717-16.055,13.64-16.055c3.672,0.001,6.951,2.134,8.555,5.567   c1.503,3.215,1.093,6.709-1.095,9.357c-0.269,0.261-0.532,0.547-0.783,0.85c-0.339,0.41-0.298,1.013,0.093,1.374   c0.391,0.359,0.996,0.352,1.376-0.021c0.278-0.271,0.537-0.55,0.777-0.835c1.175-1.113,2.52-1.677,3.998-1.677   c5.224,0,10.729,6.71,11.025,11.719C-31.31,39.769-32.432,42.72-34.742,45.17z"/><path d="M-64.346,42.835c-0.504-0.223-1.096,0.005-1.319,0.51c-0.852,1.927-2.439,3.092-4.354,3.197   c-1.967,0.118-3.788-0.937-4.867-2.795c-0.278-0.479-0.891-0.642-1.367-0.363c-0.478,0.277-0.64,0.889-0.363,1.367   c1.375,2.369,3.775,3.798,6.331,3.798c0.125,0,0.25-0.003,0.375-0.01c2.653-0.146,4.923-1.785,6.073-4.386   C-63.612,43.649-63.84,43.059-64.346,42.835z"/><path d="M-75.513,39.401c0.367-0.333,0.867-0.501,1.163-0.389c0.518,0.193,1.093-0.067,1.288-0.584   c0.194-0.517-0.067-1.094-0.584-1.288c-1.01-0.38-2.271-0.074-3.212,0.78c-0.409,0.371-0.439,1.003-0.068,1.413   c0.197,0.217,0.468,0.328,0.741,0.328C-75.945,39.661-75.705,39.575-75.513,39.401z"/><path d="M-67.393,36.849c-0.53,0.156-0.833,0.712-0.677,1.242c0.156,0.53,0.71,0.832,1.242,0.677   c1.169-0.344,1.514,0.108,1.643,0.279c0.197,0.259,0.496,0.396,0.798,0.396c0.21,0,0.423-0.066,0.604-0.203   c0.44-0.334,0.526-0.961,0.192-1.401C-64.08,37.195-65.219,36.21-67.393,36.849z"/><path d="M-68.212,70.018c-0.191,0.075-0.318,0.26-0.318,0.466v0.044c-1.431,2.781-1.054,4.179-0.699,4.768   c0.31,0.513,0.82,0.807,1.398,0.807c0,0,0,0,0,0c0.743,0,1.435-0.483,1.763-1.231c0.268-0.61,0.647-2.292-1.596-4.726   C-67.802,69.993-68.019,69.944-68.212,70.018z M-66.982,74.469c-0.168,0.385-0.501,0.633-0.847,0.633   c-0.158,0-0.381-0.056-0.543-0.324c-0.146-0.241-0.507-1.158,0.504-3.328C-66.979,72.612-66.649,73.709-66.982,74.469z"/><path d="M-52.326,64.429c-0.191,0.075-0.318,0.26-0.318,0.466v0.044c-1.431,2.781-1.054,4.179-0.699,4.768   c0.31,0.513,0.82,0.807,1.398,0.807c0,0,0,0,0,0c0.743,0,1.435-0.483,1.763-1.231c0.268-0.61,0.647-2.292-1.596-4.726   C-51.916,64.404-52.133,64.354-52.326,64.429z M-51.096,68.88c-0.168,0.385-0.501,0.633-0.847,0.633   c-0.158,0-0.381-0.056-0.543-0.324c-0.146-0.241-0.507-1.158,0.504-3.328C-51.093,67.023-50.763,68.12-51.096,68.88z"/><path d="M-57.969,86.583c-0.191,0.075-0.318,0.26-0.318,0.466v0.044c-1.431,2.781-1.054,4.179-0.699,4.768   c0.31,0.513,0.82,0.807,1.398,0.807c0,0,0,0,0,0c0.743,0,1.435-0.483,1.763-1.231c0.268-0.61,0.647-2.292-1.596-4.726   C-57.559,86.557-57.775,86.508-57.969,86.583z M-56.739,91.034c-0.168,0.385-0.501,0.633-0.847,0.633   c-0.158,0-0.381-0.056-0.543-0.324c-0.146-0.241-0.507-1.158,0.504-3.328C-56.736,89.177-56.406,90.274-56.739,91.034z"/><path d="M-79.866,83.028c-0.197,0.072-0.328,0.26-0.328,0.469v0.067c-1.468,3.086-1.043,4.581-0.655,5.2   c0.311,0.497,0.805,0.781,1.355,0.782c0,0,0,0,0,0c0.716,0,1.375-0.464,1.72-1.21c0.302-0.653,0.756-2.462-1.539-5.162   C-79.448,83.014-79.67,82.956-79.866,83.028z M-78.682,87.916c-0.177,0.383-0.496,0.63-0.812,0.63c-0.204,0-0.38-0.108-0.508-0.312   c-0.164-0.262-0.579-1.266,0.472-3.712C-78.183,86.426-78.527,87.582-78.682,87.916z"/><path d="M-87.326,66.429c-0.191,0.075-0.318,0.26-0.318,0.466v0.044c-1.431,2.781-1.054,4.179-0.699,4.768   c0.31,0.513,0.82,0.807,1.398,0.807c0,0,0,0,0,0c0.743,0,1.435-0.483,1.763-1.231c0.268-0.61,0.647-2.292-1.596-4.726   C-86.916,66.403-87.133,66.354-87.326,66.429z M-86.096,70.88c-0.168,0.385-0.501,0.633-0.847,0.633   c-0.158,0-0.381-0.056-0.543-0.324c-0.146-0.241-0.507-1.158,0.504-3.328C-86.093,69.023-85.763,70.12-86.096,70.88z"/></g><g><path d="M53.971,23.7c-1.567-0.251-3.13-0.378-4.645-0.378c-14.825,0-23.675,11.74-24.475,22.786   C23.71,61.854,36.619,69.38,48.019,71.04c0.036,0.005,0.072,0.008,0.108,0.01c0.383,0.013,0.774,0.011,1.139,0.02   c15.534,0,23.547-11.489,24.417-22.164C74.535,38.462,68.73,26.121,53.971,23.7z M71.69,48.743   c-0.825,10.118-8.078,20.327-22.424,20.326c-0.001,0-0.003,0-0.004,0c-0.332,0-0.67-0.006-1.009-0.017   c-10.538-1.552-22.447-8.448-21.407-22.8c0.734-10.146,8.863-20.931,22.48-20.931c1.41,0,2.866,0.119,4.325,0.353   C67.23,27.901,72.496,38.865,71.69,48.743z"/><path d="M59.198,40.106c-0.494-0.247-1.095-0.048-1.342,0.446c-1.167,2.326-3.904,3.919-6.972,4.059   c-2.987,0.147-5.631-1.13-7.034-3.389c-0.292-0.469-0.908-0.614-1.377-0.322c-0.469,0.292-0.613,0.908-0.322,1.377   c1.705,2.744,4.777,4.343,8.292,4.343c0.176,0,0.354-0.004,0.533-0.012c3.838-0.175,7.16-2.152,8.669-5.161   C59.892,40.955,59.692,40.354,59.198,40.106z"/><path d="M44.074,34.405C44.211,34.47,44.356,34.5,44.5,34.5c0.375,0,0.734-0.212,0.905-0.574c0.185-0.392,0.572-1.064,1.092-1.168   c0.405-0.082,0.972,0.178,1.58,0.731c0.409,0.372,1.042,0.342,1.413-0.066c0.372-0.409,0.342-1.041-0.066-1.413   c-1.395-1.27-2.575-1.362-3.316-1.213c-0.724,0.144-1.748,0.656-2.512,2.277C43.36,33.573,43.574,34.169,44.074,34.405z"/><path d="M54.265,33.894c0.356-0.423,0.9-0.94,1.47-0.894c0.523,0.025,1.124,0.493,1.691,1.317c0.194,0.282,0.507,0.433,0.825,0.433   c0.195,0,0.393-0.057,0.566-0.176c0.455-0.313,0.57-0.936,0.257-1.391c-1.191-1.731-2.421-2.141-3.242-2.181   c-0.766-0.043-1.925,0.211-3.097,1.604c-0.355,0.422-0.301,1.053,0.122,1.409C53.279,34.371,53.91,34.316,54.265,33.894z"/><path d="M21.904,24.037c1.282,1.158,2.554,2.306,3.805,3.423c0.19,0.17,0.429,0.254,0.666,0.254c0.275,0,0.549-0.113,0.746-0.334   c0.368-0.412,0.333-1.044-0.08-1.412c-1.249-1.116-2.518-2.261-3.797-3.417c-3.325-3.002-6.764-6.106-10.101-8.908   c-0.423-0.355-1.053-0.3-1.409,0.123c-0.355,0.423-0.3,1.054,0.123,1.409C15.167,17.954,18.591,21.046,21.904,24.037z"/><path d="M77.323,68.432c-0.314-0.455-0.937-0.568-1.391-0.254c-0.455,0.314-0.568,0.937-0.254,1.391   c3.597,5.205,6.887,9.563,10.058,13.326c0.198,0.235,0.48,0.355,0.765,0.355c0.228,0,0.457-0.077,0.644-0.235   c0.422-0.356,0.476-0.987,0.12-1.409C84.135,77.892,80.883,73.583,77.323,68.432z"/><path d="M29.562,71.274c-3.652,3.46-6.899,7.635-9.865,11.63c-0.329,0.444-0.236,1.07,0.207,1.399   c0.179,0.133,0.388,0.197,0.595,0.197c0.306,0,0.608-0.14,0.804-0.404c2.912-3.923,6.094-8.016,9.635-11.37   c0.401-0.38,0.418-1.013,0.038-1.414S29.963,70.895,29.562,71.274z"/><path d="M88.036,15.219c0.466-0.296,0.604-0.914,0.308-1.38c-0.296-0.466-0.915-0.604-1.38-0.308   c-4.452,2.828-8.813,7.096-12.281,12.018c-0.318,0.452-0.21,1.076,0.241,1.394c0.175,0.124,0.376,0.183,0.575,0.183   c0.314,0,0.624-0.147,0.818-0.424C79.638,21.987,83.8,17.91,88.036,15.219z"/><path d="M51.503,19.079C51.544,19.603,51.982,20,52.499,20c0.026,0,0.053-0.001,0.08-0.003c0.55-0.044,0.961-0.525,0.918-1.076   c-0.101-1.264-0.196-2.559-0.292-3.86c-0.146-1.974-0.292-3.966-0.459-5.896c-0.047-0.55-0.534-0.965-1.082-0.91   c-0.55,0.047-0.958,0.532-0.91,1.082c0.166,1.922,0.312,3.906,0.457,5.872C51.307,16.513,51.403,17.812,51.503,19.079z"/><path d="M55,75.5c0-0.552-0.448-1-1-1s-1,0.448-1,1c0,1.248,0.012,2.5,0.023,3.753c0.037,3.934,0.075,8.001-0.27,11.909   c-0.048,0.55,0.358,1.036,0.908,1.084c0.03,0.002,0.06,0.004,0.089,0.004c0.513,0,0.949-0.392,0.995-0.912   c0.353-4.005,0.314-8.122,0.277-12.103C55.012,77.988,55,76.742,55,75.5z"/><path d="M20.741,48.867c-0.074-0.548-0.585-0.934-1.125-0.858c-1.51,0.204-3.057,0.35-4.694,0.504   c-2.606,0.246-5.302,0.5-7.866,1.006c-0.542,0.107-0.895,0.633-0.788,1.174C6.363,51.17,6.781,51.5,7.249,51.5   c0.064,0,0.129-0.006,0.194-0.019c2.465-0.486,5.11-0.736,7.667-0.977c1.585-0.149,3.224-0.304,4.773-0.513   C20.431,49.917,20.815,49.414,20.741,48.867z"/><path d="M93.699,45.02c-4.311-0.875-9.969-1.666-15.492,0.024c-0.528,0.162-0.825,0.721-0.664,1.249   C77.675,46.723,78.072,47,78.5,47c0.097,0,0.196-0.015,0.293-0.044c5.091-1.557,10.429-0.805,14.508,0.024   c0.543,0.111,1.069-0.24,1.179-0.781S94.24,45.13,93.699,45.02z"/></g><g><path d="M206.97,54.3c-0.008-0.228-0.018-0.455-0.03-0.684c-0.028-0.549-0.512-0.973-1.043-0.947   c-0.549,0.024-0.975,0.487-0.955,1.036c0.008,0.225,0.018,0.45,0.029,0.674c0.001,0.037,0.002,0.074,0.003,0.11   c-5.373,9.094-12.491,13.141-20.058,11.397c-8.773-2.019-16.237-11.562-16.992-21.727c-0.788-10.596,5.731-19.413,17.884-24.189   c0.476-0.187,0.728-0.698,0.603-1.181c0.132-0.51-0.156-1.041-0.664-1.203c-19.969-6.374-38.784,5.431-47.046,20.389   c-9.97,18.053-3.19,33.192,6.48,41.34c7.324,6.171,16.687,9.377,26.08,9.377c6.099,0,12.212-1.352,17.786-4.122   c11.716-5.822,18.204-16.611,17.938-29.727c0.006-0.055,0.008-0.111,0.005-0.167C206.983,54.552,206.976,54.426,206.97,54.3z    M188.157,82.78c-13.454,6.687-30.207,4.679-41.686-4.993c-13.822-11.646-12.171-27.702-6.018-38.844   c6.375-11.542,19.322-21.122,34.085-21.122c2.815,0,5.697,0.348,8.611,1.098c-11.782,5.279-18.032,14.441-17.219,25.389   c0.816,10.989,8.959,21.323,18.538,23.527c4.556,1.049,12.946,1.036,20.418-9.525C204.039,69.065,198.108,77.835,188.157,82.78z"/><path d="M163.622,50.805c-0.484-0.262-1.092-0.081-1.355,0.404c-1.79,3.308-4.479,5.097-7.528,5.107   c-3.541-0.018-7.069-2.546-9.208-6.598c-0.258-0.488-0.861-0.676-1.351-0.417c-0.488,0.258-0.675,0.863-0.417,1.351   c2.484,4.706,6.687,7.643,10.967,7.665c0.016,0,0.032,0,0.048,0c3.763,0,7.132-2.241,9.249-6.156   C164.289,51.674,164.108,51.067,163.622,50.805z"/><path d="M155.516,42.328c1.685-0.388,3.102,0.018,3.989,1.145c0.197,0.25,0.49,0.381,0.786,0.381c0.217,0,0.435-0.07,0.618-0.214   c0.434-0.342,0.509-0.971,0.167-1.404c-1.375-1.745-3.565-2.421-6.011-1.855c-0.538,0.124-0.874,0.661-0.749,1.199   C154.44,42.117,154.977,42.452,155.516,42.328z"/><path d="M145.43,43.991c0.252,0,0.504-0.095,0.699-0.285c1.236-1.208,2.659-1.596,4.003-1.097c0.514,0.192,1.093-0.07,1.286-0.588   c0.193-0.517-0.07-1.093-0.588-1.286c-2.08-0.775-4.304-0.214-6.1,1.541c-0.395,0.386-0.402,1.019-0.016,1.414   C144.911,43.89,145.17,43.991,145.43,43.991z"/></g><g><path d="M303.089,35.264c-3.767-5.208-7.325-10.127-9.363-15.137c0.157-0.439-0.012-0.943-0.428-1.192   c-0.475-0.284-1.088-0.131-1.372,0.343c-2.582,4.303-5.834,8.429-9.277,12.796c-7.374,9.353-14.998,19.025-16.115,31.006   c-0.837,8.98,3.17,16.335,10.995,20.179c3.374,1.657,7.088,2.461,10.81,2.461c6.337,0,12.694-2.33,17.422-6.738   C323.049,62.858,312.445,48.198,303.089,35.264z M304.396,77.52c-6.91,6.445-17.596,8.067-25.986,3.945   c-7.038-3.458-10.641-10.091-9.885-18.199c1.062-11.393,8.5-20.829,15.694-29.954c2.979-3.778,5.816-7.377,8.231-11.1   c2.195,4.791,5.659,9.58,9.018,14.223C311.201,49.891,320.394,62.6,304.396,77.52z"/><path d="M299.899,52.581c-0.471-0.292-1.086-0.147-1.377,0.322c-1.292,2.082-3.716,3.255-6.488,3.123   c-2.833-0.129-5.358-1.598-6.433-3.742c-0.248-0.494-0.85-0.693-1.342-0.446c-0.494,0.248-0.693,0.849-0.446,1.342   c1.417,2.824,4.532,4.68,8.13,4.843c0.167,0.008,0.334,0.012,0.5,0.012c3.296,0,6.179-1.501,7.779-4.077   C300.513,53.489,300.369,52.873,299.899,52.581z"/><path d="M295.69,47.791c0.55-0.5,1.052-0.736,1.411-0.664c0.337,0.067,0.681,0.439,0.968,1.049c0.171,0.362,0.53,0.574,0.905,0.574   c0.143,0,0.288-0.03,0.426-0.095c0.5-0.236,0.714-0.832,0.479-1.331c-0.724-1.536-1.698-2.021-2.388-2.159   c-0.708-0.139-1.827-0.054-3.146,1.146c-0.409,0.372-0.438,1.004-0.067,1.413C294.649,48.132,295.281,48.163,295.69,47.791z"/><path d="M286.171,48.982c0.318,0,0.63-0.151,0.825-0.433c0.516-0.75,1.057-1.175,1.522-1.197c0.496-0.055,0.991,0.425,1.312,0.807   c0.355,0.423,0.986,0.478,1.409,0.122c0.423-0.355,0.477-0.986,0.122-1.409c-1.108-1.319-2.209-1.548-2.938-1.518   c-0.781,0.038-1.947,0.425-3.073,2.06c-0.313,0.455-0.198,1.078,0.256,1.391C285.778,48.925,285.976,48.982,286.171,48.982z"/></g><g><path d="M453.87,52.68c-0.382-6.453-7.308-14.779-14.141-14.779c-0.826,0-1.621,0.118-2.382,0.352   c1.049-2.854,0.905-6.038-0.495-9.034c-2.102-4.497-6.412-7.292-11.252-7.293c-8.92,0-13.009,8.486-15.802,15.971   c-1.78-6.378-7.205-9.282-12.494-9.282c-4.395,0-8.596,1.975-11.238,5.283c-1.827,2.287-3.698,6.161-2.896,12.025   c-5.963-2.653-11.48-0.914-14.536,4.38c-2.619,4.537-2.818,10.528-0.484,14.57c1.708,2.958,4.638,4.588,8.249,4.588h0.001   c1.939,0,4.088-0.457,6.399-1.359c0.671,5.068,4.547,9.094,8.878,9.094c2.404,0,4.606-1.266,6.311-3.597   c2.129,2.416,4.981,3.684,8.327,3.684c6.796,0,14.215-5.161,17.734-10.269c2.733,2.002,6.186,3.054,10.062,3.054   c5.869,0,11.862-2.491,15.641-6.501C452.685,60.458,454.108,56.693,453.87,52.68z M448.299,62.195   c-3.414,3.622-8.849,5.873-14.186,5.873c-3.827,0-7.165-1.135-9.653-3.282c-0.225-0.194-0.521-0.277-0.814-0.23   c-0.292,0.047-0.548,0.222-0.699,0.477c-2.934,4.95-10.316,10.249-16.63,10.25c-3.202,0-5.752-1.336-7.581-3.973   c-0.188-0.27-0.495-0.43-0.822-0.43c-0.014,0-0.028,0-0.042,0.001c-0.343,0.015-0.654,0.204-0.825,0.501   c-1.434,2.495-3.29,3.814-5.368,3.814c-3.426,0-6.609-3.602-6.95-7.865c-0.019-0.237-0.122-0.46-0.29-0.628l-0.547-0.546   c-0.29-0.29-0.724-0.373-1.099-0.212c-2.358,1.006-4.508,1.516-6.392,1.517H376.4c-2.908,0-5.162-1.241-6.517-3.588   c-1.962-3.398-1.759-8.685,0.484-12.571c0.999-1.73,3.287-4.632,7.387-4.632c1.938,0,4.045,0.649,6.263,1.93   c0.343,0.197,0.773,0.176,1.093-0.061c0.32-0.236,0.47-0.639,0.382-1.026c-1.415-6.238,0.381-10.168,2.137-12.367   c2.266-2.837,5.883-4.531,9.675-4.531c7.404,0,10.905,5.717,11.09,11.382c0.016,0.48,0.371,0.881,0.845,0.955   c0.478,0.076,0.935-0.199,1.097-0.651l0.271-0.761c2.646-7.434,6.271-17.614,14.997-17.614c4.051,0.001,7.667,2.354,9.437,6.14   c1.659,3.55,1.205,7.408-1.213,10.331c-0.292,0.284-0.579,0.594-0.852,0.924c-0.339,0.41-0.298,1.013,0.093,1.374   c0.392,0.36,0.996,0.352,1.376-0.021c0.303-0.296,0.584-0.6,0.846-0.909c1.304-1.236,2.796-1.863,4.438-1.863   c5.754,0,11.818,7.385,12.145,12.897C452.078,56.248,450.842,59.498,448.299,62.195z"/><path d="M416.152,55.89c-0.47-0.292-1.087-0.148-1.377,0.322c-1.293,2.082-3.709,3.258-6.488,3.123   c-2.833-0.129-5.358-1.598-6.433-3.742c-0.248-0.494-0.85-0.693-1.342-0.446c-0.494,0.248-0.693,0.849-0.446,1.342   c1.417,2.824,4.532,4.68,8.13,4.843c0.167,0.008,0.334,0.012,0.5,0.012c3.296,0,6.179-1.501,7.779-4.077   C416.766,56.798,416.622,56.182,416.152,55.89z"/><path d="M411.943,51.1c0.55-0.501,1.052-0.735,1.411-0.664c0.337,0.067,0.681,0.439,0.968,1.049   c0.171,0.362,0.53,0.574,0.905,0.574c0.143,0,0.288-0.03,0.426-0.095c0.5-0.236,0.714-0.832,0.479-1.331   c-0.724-1.536-1.698-2.021-2.388-2.159c-0.708-0.14-1.827-0.054-3.146,1.146c-0.409,0.372-0.438,1.004-0.067,1.413   C410.902,51.441,411.534,51.472,411.943,51.1z"/><path d="M402.424,52.291c0.318,0,0.63-0.151,0.825-0.433c0.516-0.75,1.057-1.175,1.522-1.197c0.483-0.043,0.991,0.426,1.312,0.807   c0.355,0.424,0.986,0.478,1.409,0.122c0.423-0.355,0.477-0.986,0.122-1.409c-1.108-1.319-2.211-1.55-2.938-1.518   c-0.781,0.038-1.947,0.425-3.073,2.06c-0.313,0.455-0.198,1.078,0.256,1.391C402.031,52.234,402.229,52.291,402.424,52.291z"/></g><g><path d="M560.242,42.552l-26.18-32.741c-0.185-0.231-0.463-0.369-0.759-0.375l-33.765-0.768c-0.356-0.014-0.586,0.125-0.773,0.339   c-0.014,0.012-0.028,0.025-0.042,0.039c-0.395,0.386-0.401,1.02-0.016,1.414l24.784,25.334l-21.621,0.784   c-0.43,0.016-0.801,0.304-0.923,0.715s0.032,0.855,0.384,1.102l27.162,19.103l-16.796,1.437c-0.41,0.035-0.756,0.317-0.873,0.711   c-0.118,0.394,0.018,0.819,0.342,1.073L551.91,92.6c0.182,0.142,0.399,0.212,0.616,0.212c0.243,0,0.485-0.088,0.676-0.263   c0.36-0.33,0.429-0.873,0.162-1.283l-15.962-24.537l18.733-0.474c0.402-0.01,0.76-0.261,0.906-0.636s0.054-0.801-0.235-1.082   l-19.702-19.117l22.412-1.247c0.374-0.021,0.704-0.249,0.857-0.59C560.526,43.243,560.476,42.844,560.242,42.552z M534.715,43.551   c-0.396,0.022-0.742,0.277-0.881,0.649c-0.14,0.372-0.045,0.791,0.24,1.067l19.632,19.049l-18.143,0.459   c-0.362,0.009-0.69,0.213-0.859,0.534c-0.169,0.321-0.151,0.708,0.047,1.011l13.663,21.004l-34.012-26.614l16.999-1.454   c0.419-0.036,0.771-0.33,0.881-0.736c0.109-0.406-0.047-0.837-0.391-1.079l-26.979-18.974l20.912-0.758   c0.396-0.015,0.746-0.261,0.893-0.628s0.062-0.788-0.214-1.07l-24.745-25.293l31.033,0.706l24.677,30.861L534.715,43.551z"/><path d="M531.521,29.293c-2.747,0.373-5.27-0.57-6.743-2.527c-0.333-0.44-0.96-0.53-1.4-0.196c-0.441,0.332-0.529,0.959-0.197,1.4   c1.647,2.185,4.255,3.404,7.161,3.404c0.476,0,0.961-0.033,1.45-0.099c3.568-0.486,6.505-2.614,7.662-5.554   c0.202-0.514-0.051-1.094-0.564-1.297c-0.512-0.201-1.094,0.05-1.297,0.564C536.713,27.221,534.33,28.91,531.521,29.293z"/><path d="M523.521,23.613c0.113,0.042,0.229,0.062,0.344,0.062c0.408,0,0.791-0.252,0.939-0.657c0.231-0.633,0.54-1.035,0.87-1.132   c0.351-0.1,0.872,0.086,1.465,0.535c0.44,0.335,1.067,0.246,1.4-0.193c0.334-0.44,0.247-1.067-0.193-1.401   c-1.422-1.079-2.547-1.063-3.236-0.859c-0.675,0.198-1.602,0.77-2.185,2.364C522.735,22.849,523.002,23.423,523.521,23.613z"/><path d="M531.369,21.117c-0.315,0.453-0.205,1.076,0.248,1.392c0.451,0.316,1.077,0.205,1.393-0.248   c0.285-0.409,0.731-0.901,1.234-0.922c0.478-0.027,1.041,0.355,1.622,1.055c0.198,0.238,0.482,0.361,0.771,0.361   c0.225,0,0.451-0.076,0.638-0.23c0.425-0.353,0.483-0.983,0.131-1.408c-1.267-1.526-2.442-1.804-3.245-1.776   C533.432,19.372,532.355,19.704,531.369,21.117z"/></g><g><path d="M661.465,48.744c-0.493-0.246-1.096-0.047-1.342,0.446c-1.167,2.326-3.902,3.919-6.971,4.059   c-3.006,0.14-5.632-1.129-7.036-3.389c-0.291-0.468-0.906-0.615-1.378-0.321c-0.469,0.292-0.612,0.908-0.321,1.377   c1.706,2.744,4.777,4.343,8.292,4.343c0.177,0,0.355-0.004,0.535-0.012c3.837-0.175,7.158-2.153,8.666-5.161   C662.158,49.592,661.959,48.991,661.465,48.744z"/><path d="M645.34,46.042c0.138,0.065,0.283,0.096,0.426,0.096c0.375,0,0.734-0.212,0.905-0.573c0.319-0.677,0.708-1.092,1.094-1.168   c0.413-0.079,0.972,0.178,1.579,0.731c0.408,0.373,1.04,0.343,1.412-0.066c0.372-0.408,0.343-1.041-0.066-1.413   c-1.394-1.271-2.571-1.36-3.313-1.214c-0.725,0.144-1.749,0.655-2.514,2.277C644.627,45.21,644.841,45.807,645.34,46.042z"/><path d="M656.532,44.531c0.355-0.423,0.904-0.933,1.47-0.894c0.522,0.025,1.123,0.493,1.691,1.317   c0.193,0.282,0.506,0.433,0.824,0.433c0.195,0,0.393-0.057,0.566-0.176c0.455-0.313,0.569-0.936,0.256-1.391   c-1.191-1.731-2.42-2.141-3.242-2.181c-0.75-0.044-1.924,0.21-3.097,1.604c-0.355,0.422-0.301,1.053,0.122,1.409   C655.547,45.01,656.177,44.954,656.532,44.531z"/><path d="M693.758,49.338c-1.641-0.152-3.299-0.235-4.967-0.277c0.274-0.875,0.634-1.741,1.089-2.587   c0.262-0.487,0.079-1.093-0.407-1.354c-0.485-0.262-1.093-0.079-1.354,0.407c-0.614,1.143-1.068,2.32-1.394,3.509   c-4.081-0.012-8.206,0.218-12.283,0.502c2.346-2.691,4.301-5.011,6.005-7.14c0.346-0.431,0.276-1.06-0.155-1.405   c-0.432-0.346-1.061-0.275-1.405,0.155c-2.002,2.499-4.325,5.241-7.277,8.592c-0.062,0.005-0.125,0.009-0.187,0.014   c-0.803,0.059-1.6,0.115-2.396,0.171c0.023-3.423-1.012-7.025-3.256-9.948c0.265-0.028,0.521-0.144,0.693-0.373l1.026-1.359   c0.73-0.97,1.469-1.946,2.218-2.917c0.248,0.17,0.497,0.346,0.741,0.507c0.169,0.112,0.36,0.166,0.55,0.166   c0.324,0,0.644-0.158,0.835-0.449c0.305-0.461,0.178-1.081-0.283-1.386c-0.199-0.131-0.403-0.276-0.604-0.413   c1.006-1.259,2.039-2.498,3.125-3.68c1.305,0.607,2.914,1.168,4.54,1.259c0.019,0.001,0.038,0.001,0.057,0.001   c0.526,0,0.968-0.412,0.997-0.944c0.031-0.551-0.391-1.023-0.942-1.054c-0.939-0.053-2.03-0.333-3.173-0.802   c0.978-0.973,1.997-1.896,3.072-2.75c0.433-0.344,0.505-0.973,0.161-1.405c-0.344-0.433-0.974-0.505-1.405-0.161   c-0.901,0.716-1.754,1.484-2.582,2.275c0.001-0.008,0.003-0.015,0.004-0.023c0.186-1.122,0.378-2.282,0.755-3.009   c0.254-0.49,0.063-1.094-0.427-1.348c-0.491-0.254-1.095-0.063-1.349,0.427c-0.523,1.008-0.741,2.327-0.952,3.603   c-0.133,0.799-0.258,1.553-0.441,2.129c-0.072,0.224-0.06,0.458,0.021,0.665c-1.075,1.183-2.101,2.41-3.094,3.657   c-1.031-0.759-2.055-1.558-3-2.358c-0.421-0.357-1.052-0.302-1.409,0.118c-0.356,0.422-0.304,1.053,0.118,1.41   c0.963,0.814,2.004,1.629,3.056,2.405c-0.738,0.957-1.465,1.918-2.185,2.873l-1.022,1.355c-0.079,0.104-0.132,0.221-0.164,0.34   c-2.133-2.212-5.086-3.886-8.979-4.524c-0.594-0.095-1.186-0.156-1.772-0.198c-0.031-0.71-0.062-1.42-0.105-2.127l0.402-0.469   c2.764-3.226,5.622-6.562,8.95-8.93c0.449-0.32,0.555-0.944,0.234-1.395c-0.318-0.45-0.943-0.555-1.395-0.235   c-3.151,2.242-5.831,5.218-8.393,8.192c-0.146-1.849-0.317-3.68-0.487-5.481c-0.218-2.318-0.436-4.672-0.601-7.047   c1.426-0.383,2.774-1.305,4.023-2.761c0.359-0.419,0.312-1.051-0.107-1.41c-0.418-0.359-1.051-0.312-1.41,0.107   c-0.853,0.994-1.734,1.656-2.632,1.998c-0.132-2.458-0.19-4.936-0.103-7.422c0.02-0.552-0.412-1.015-0.964-1.035   c-0.505-0.023-1.016,0.412-1.034,0.964c-0.092,2.594-0.029,5.166,0.109,7.71c-1.133-0.178-2.286-0.857-3.391-2.002   c-0.383-0.397-1.016-0.408-1.414-0.025c-0.397,0.383-0.409,1.016-0.025,1.414c1.544,1.601,3.245,2.498,4.955,2.638   c0.166,2.381,0.384,4.737,0.602,7.057c0.159,1.692,0.318,3.413,0.459,5.146c-0.075-0.064-0.149-0.131-0.224-0.195   c-1.449-1.239-2.947-2.521-3.912-3.936c-0.311-0.457-0.935-0.573-1.39-0.263c-0.456,0.312-0.574,0.934-0.263,1.39   c1.115,1.635,2.716,3.004,4.264,4.328c0.614,0.525,1.189,1.028,1.731,1.533c0.047,0.743,0.083,1.487,0.115,2.232   c-3.993,0.146-7.317,1.56-9.864,3.706c-0.02-0.024-0.027-0.053-0.05-0.075c-1.808-1.791-3.509-3.819-5.148-5.928   c0.573-0.455,1.192-0.832,1.839-1.109c0.507-0.218,0.742-0.806,0.524-1.313c-0.218-0.508-0.807-0.744-1.313-0.525   c-0.797,0.341-1.56,0.803-2.265,1.36c-0.903-1.201-1.793-2.414-2.671-3.617c-0.195-0.267-0.396-0.539-0.593-0.808   c1.137-1.24,1.997-2.707,2.541-4.373c0.171-0.525-0.116-1.089-0.641-1.261c-0.528-0.173-1.091,0.116-1.262,0.641   c-0.408,1.252-1.04,2.366-1.856,3.334c-0.575-0.776-1.154-1.549-1.733-2.301c-0.338-0.438-0.965-0.519-1.402-0.182   s-0.519,0.965-0.182,1.402c0.622,0.808,1.246,1.642,1.865,2.48c-0.65,0.512-1.367,0.965-2.163,1.336   c-0.5,0.233-0.717,0.828-0.483,1.329c0.17,0.364,0.53,0.578,0.907,0.578c0.142,0,0.285-0.03,0.422-0.094   c0.917-0.428,1.746-0.947,2.502-1.534c0.153,0.21,0.311,0.423,0.463,0.631c0.929,1.272,1.871,2.557,2.83,3.828   c-0.544,0.618-1.029,1.294-1.428,2.021c-0.266,0.485-0.088,1.092,0.396,1.357c0.152,0.083,0.317,0.123,0.479,0.123   c0.354,0,0.696-0.188,0.878-0.52c0.264-0.482,0.575-0.937,0.918-1.362c1.638,2.096,3.342,4.117,5.167,5.925   c0.01,0.009,0.022,0.012,0.032,0.021c-2.45,2.639-3.946,5.993-4.375,9.326c-0.092-0.028-0.185-0.058-0.286-0.058   c-1.513,0-3.04-0.019-4.573-0.042c-0.014-0.019-0.02-0.041-0.035-0.059c-2.326-2.713-4.348-5.609-5.846-8.375   c-0.263-0.486-0.87-0.667-1.355-0.403s-0.666,0.87-0.402,1.355c1.329,2.456,3.062,4.999,5.033,7.44   c-4.517-0.079-9.13-0.156-13.675,0.047c0.156-1.754-0.124-3.468-0.893-5.063c-0.239-0.497-0.838-0.706-1.335-0.467   c-0.498,0.24-0.707,0.837-0.468,1.335c0.717,1.488,0.852,2.959,0.679,4.311c-2.002,0.13-3.988,0.317-5.939,0.599   c-0.547,0.079-0.926,0.586-0.847,1.133c0.071,0.498,0.499,0.857,0.988,0.857c0.047,0,0.096-0.003,0.144-0.01   c1.693-0.245,3.417-0.42,5.159-0.545c-0.422,1.175-1.007,2.179-1.504,2.901c-0.312,0.455-0.197,1.078,0.258,1.39   c0.173,0.119,0.37,0.176,0.565,0.176c0.318,0,0.631-0.151,0.825-0.434c0.943-1.372,1.605-2.77,1.999-4.158   c4.521-0.222,9.135-0.156,13.661-0.078c-1.742,2.607-3.174,5.349-4.139,7.369c-0.238,0.499-0.027,1.095,0.472,1.333   c0.139,0.066,0.285,0.098,0.43,0.098c0.373,0,0.731-0.209,0.903-0.569c1.07-2.24,2.73-5.391,4.743-8.192   c1.728,0.028,3.449,0.051,5.151,0.051c0.054,0,0.101-0.022,0.152-0.031c-0.016,3.82,1.395,8.05,4.975,11.212   c-0.044,0.029-0.093,0.043-0.133,0.079c-1.496,1.361-3.07,2.691-4.594,3.978c-0.51,0.431-1.022,0.865-1.535,1.301l-1.133-1.22   c-0.378-0.405-1.01-0.427-1.413-0.052c-0.404,0.376-0.428,1.009-0.052,1.413l1.082,1.166c-1.195,1.044-2.376,2.122-3.518,3.246   c-1.236-0.602-2.715-0.835-4.445-0.64c-0.549,0.062-0.942,0.558-0.88,1.106c0.062,0.548,0.536,0.945,1.106,0.881   c1.046-0.12,1.938-0.045,2.714,0.194c-0.999,1.068-1.959,2.182-2.846,3.369c-0.331,0.442-0.24,1.069,0.202,1.399   c0.18,0.134,0.39,0.199,0.598,0.199c0.305,0,0.605-0.139,0.802-0.401c0.936-1.25,1.946-2.409,3.006-3.521   c0.638,0.651,1.117,1.549,1.449,2.709c0.126,0.439,0.526,0.726,0.961,0.726c0.092,0,0.184-0.013,0.275-0.039   c0.531-0.152,0.839-0.705,0.688-1.236c-0.429-1.498-1.088-2.696-1.965-3.583c1.035-1.005,2.106-1.98,3.213-2.944l1.89,2.035   c0.197,0.212,0.465,0.32,0.733,0.32c0.243,0,0.487-0.088,0.68-0.267c0.405-0.375,0.429-1.008,0.054-1.413l-1.839-1.98   c0.483-0.412,0.972-0.824,1.464-1.24c1.536-1.298,3.125-2.641,4.648-4.026c0.124-0.113,0.2-0.252,0.254-0.399   c2.299,1.587,5.295,2.786,9.115,3.343c0.036,0.005,0.072,0.008,0.109,0.01c0.254,0.009,0.509,0.013,0.758,0.013   c0.001,0,0.001,0,0.003,0c0.044,0,0.084-0.006,0.127-0.006c0.001,0.019-0.008,0.035-0.006,0.054   c0.159,1.811,0.262,3.641,0.329,5.478c-2.871,2.229-5.79,4.633-7.809,7.145c-0.346,0.431-0.277,1.06,0.153,1.406   c0.432,0.347,1.062,0.277,1.405-0.153c1.628-2.025,3.938-4.02,6.32-5.911c0.075,3.787,0.021,7.588-0.034,11.315   c-0.002,0.112-0.002,0.223-0.003,0.334c-1.898-0.036-3.855,0.3-5.755,1.032c-0.516,0.198-0.772,0.777-0.574,1.292   c0.199,0.517,0.779,0.771,1.293,0.574c1.662-0.64,3.369-0.936,5.016-0.903c-0.023,1.707-0.052,3.416-0.052,5.114   c0,0.552,0.447,1,1,1s1-0.448,1-1c0-1.624,0.027-3.258,0.049-4.89c0.993,0.195,1.95,0.506,2.833,0.966   c0.147,0.077,0.305,0.113,0.46,0.113c0.361,0,0.71-0.196,0.888-0.539c0.255-0.49,0.064-1.094-0.426-1.349   c-1.161-0.604-2.424-1.002-3.734-1.222c0.002-0.165,0.002-0.328,0.005-0.493c0.056-3.683,0.107-7.437,0.038-11.189   c3.31,2.047,6.503,4.397,9.294,6.511c0.181,0.137,0.393,0.203,0.603,0.203c0.303,0,0.602-0.137,0.798-0.396   c0.334-0.44,0.247-1.067-0.193-1.401c-3.139-2.376-6.779-5.056-10.564-7.293c-0.068-1.979-0.174-3.953-0.346-5.911   c3.625-0.389,6.553-1.764,8.792-3.709c1.268,1.072,2.539,2.213,3.807,3.401c-0.65,0.674-1.263,1.386-1.787,2.16   c-0.31,0.457-0.19,1.079,0.267,1.389c0.172,0.117,0.367,0.172,0.561,0.172c0.32,0,0.636-0.154,0.829-0.439   c0.456-0.672,0.998-1.3,1.575-1.896c1.522,1.48,3.026,3.026,4.5,4.624c-1.42,0.996-2.284,2.65-2.562,4.924   c-0.067,0.548,0.322,1.047,0.871,1.114c0.041,0.005,0.082,0.007,0.122,0.007c0.498,0,0.93-0.372,0.991-0.879   c0.209-1.708,0.802-2.906,1.762-3.558c0.057-0.039,0.123-0.068,0.183-0.104c1.896,2.125,3.727,4.316,5.438,6.537   c0.197,0.256,0.493,0.39,0.793,0.39c0.213,0,0.428-0.068,0.609-0.208c0.438-0.337,0.519-0.965,0.182-1.402   c-1.533-1.989-3.164-3.954-4.847-5.873c0.858-0.024,1.847,0.105,2.97,0.398c0.528,0.139,1.08-0.181,1.22-0.715   s-0.181-1.081-0.716-1.22c-1.974-0.513-3.667-0.592-5.074-0.257c-1.618-1.774-3.278-3.487-4.958-5.124   c0.52-0.409,1.055-0.793,1.615-1.119c0.478-0.278,0.641-0.89,0.362-1.367c-0.277-0.478-0.893-0.64-1.366-0.362   c-0.727,0.422-1.407,0.922-2.062,1.453c-1.287-1.211-2.58-2.369-3.868-3.463c2.251-2.545,3.57-5.717,3.978-8.852   c0.894-0.063,1.788-0.126,2.689-0.192c0.006,0,0.011-0.001,0.017-0.001c2.035,2.403,3.932,5.015,5.681,7.497   c0.194,0.276,0.504,0.424,0.818,0.424c0.199,0,0.4-0.059,0.575-0.183c0.451-0.318,0.56-0.942,0.241-1.394   c-1.51-2.142-3.135-4.382-4.868-6.52c4.083-0.288,8.215-0.532,12.291-0.537c-0.32,2.362-0.092,4.736,0.739,6.98   c0.149,0.403,0.531,0.653,0.938,0.653c0.115,0,0.232-0.021,0.348-0.062c0.518-0.192,0.782-0.767,0.59-1.285   c-0.744-2.009-0.928-4.146-0.598-6.272c1.763,0.036,3.512,0.122,5.235,0.282c0.564,0.056,1.036-0.354,1.088-0.903   C694.713,49.876,694.309,49.389,693.758,49.338z M652.578,64.041c-0.001,0-0.003,0-0.003,0c-0.208,0-0.42-0.003-0.633-0.01   c-10.812-1.596-14.201-8.598-13.765-14.625c0.473-6.518,5.693-13.445,14.439-13.445c0.073,0,0.148,0.008,0.222,0.009   c0.054,0.009,0.104,0.031,0.159,0.031c0.012,0,0.023,0,0.034,0c0.029-0.001,0.054-0.016,0.082-0.02   c0.753,0.022,1.52,0.083,2.291,0.207c8.714,1.429,12.093,8.464,11.576,14.802C666.452,57.486,661.793,64.041,652.578,64.041z"/></g><g><path d="M803.176,34.145c-0.301-0.219-0.694-0.256-1.028-0.095c-1.817,0.879-6.367,3.071-8.528,4.111l-0.485-2.581   c-0.062-0.328-0.282-0.603-0.588-0.734c-0.307-0.131-0.658-0.102-0.938,0.079c-0.054,0.035-3.831,2.475-6.652,4.253   c1.938-6.509-1.123-13.841-1.275-14.198c-0.186-0.436-0.652-0.683-1.118-0.588c-0.359,0.073-2.951,0.617-4.867,1.544   c-0.959-4-3.954-13.513-7.887-16.427c-0.22-0.163-0.497-0.228-0.764-0.183c-0.269,0.046-0.507,0.199-0.66,0.425   c-2.304,3.397-6.159,13.952-7.32,18.37c-2.074-0.973-5.569-1.821-7.275-2.202c-0.271-0.062-0.549-0.007-0.775,0.146   c-0.228,0.153-0.383,0.393-0.429,0.663c-0.052,0.309-1.057,6.601,1.543,12.29c-5.099-1.558-12.059-2.45-12.411-2.494   c-0.388-0.047-0.76,0.128-0.967,0.453c-0.208,0.325-0.211,0.74-0.007,1.068c0.009,0.014,0.461,0.742,0.971,1.573   c-0.063-0.019-0.127-0.038-0.19-0.056c-2.584-0.768-6.489-1.927-8.423-2.287c-0.457-0.088-0.907,0.154-1.096,0.576   c-0.188,0.422-0.062,0.918,0.304,1.2c1.476,1.134,3.114,3.18,4.848,5.347c1.89,2.36,3.822,4.774,5.847,6.416   c-2.063,0.127-4.553,0.265-5.536,0.309c-0.398,0.018-0.748,0.271-0.89,0.643s-0.049,0.793,0.236,1.072   c0.39,0.38,1.056,1.196,1.827,2.142c1.583,1.939,3.056,3.696,4.378,4.917c-1.319,0.079-2.777,0.054-4.138-0.08   c-0.412-0.046-0.782,0.164-0.975,0.515c-0.192,0.351-0.156,0.784,0.091,1.099c1.538,1.954,10.002,5.744,15.106,7.583   c-0.248,0.054-0.487,0.105-0.709,0.152c-2.437,0.52-3.477,0.759-3.948,1.027c-0.317,0.18-0.512,0.519-0.507,0.883   s0.208,0.698,0.53,0.869c1.966,1.046,5.989,1.554,10.131,1.554c3.978,0,8.06-0.471,10.535-1.383   c0.812,7.309,5.819,14.764,10.359,19.396c0.195,0.2,0.455,0.3,0.714,0.3c0.253,0,0.505-0.095,0.7-0.286   c0.395-0.387,0.4-1.02,0.014-1.414c-4.292-4.38-9.023-11.378-9.794-18.16c0.704,0.045,1.4,0.075,2.08,0.075   c5.196,0,9.719-1.239,14.462-2.539c0.364-0.1,0.642-0.397,0.716-0.768s-0.066-0.751-0.364-0.984   c-0.047-0.036-0.095-0.073-0.144-0.111c5.175-2.394,10.843-7.896,11.107-8.155c0.335-0.327,0.398-0.843,0.152-1.241   c-0.246-0.397-0.734-0.574-1.179-0.419c-1.088,0.377-2.795,0.767-4.238,0.774c3.359-2.371,6.657-5.769,8.949-9.284   c0.219-0.336,0.216-0.771-0.008-1.104c-0.225-0.333-0.624-0.502-1.02-0.424c-0.394,0.077-0.88,0.061-1.394,0.047   c-0.014,0-0.027-0.001-0.041-0.001c1.525-3.934,3.082-10.829,3.363-12.721C803.627,34.73,803.474,34.364,803.176,34.145z    M797.767,48.416c-0.173,0.337-0.141,0.744,0.084,1.05s0.604,0.457,0.977,0.393c0.307-0.054,0.661-0.058,1.045-0.048   c-2.536,3.377-5.931,6.48-9.188,8.347c-0.306,0.175-0.497,0.499-0.503,0.852s0.175,0.682,0.476,0.867   c1.143,0.705,2.703,0.795,4.145,0.659c-2.489,2.097-6.204,4.901-9.271,5.871c-0.358,0.113-0.623,0.418-0.685,0.79   c-0.057,0.337,0.064,0.678,0.314,0.905c-4.735,1.268-9.363,2.292-14.748,1.8c-0.048-0.004-0.091,0.013-0.137,0.015   c-0.301-0.187-0.685-0.222-1.013-0.037c-2.848,1.598-11.252,2.059-16.473,1.248c0.008-0.001,0.015-0.003,0.022-0.005   c3.126-0.667,4.104-0.915,4.561-1.268c0.326-0.252,0.464-0.679,0.347-1.074c-0.116-0.395-0.464-0.678-0.875-0.713   c-1.691-0.143-10.307-3.672-14.751-6.134c1.429-0.03,2.787-0.164,3.849-0.392c0.44-0.095,0.764-0.473,0.788-0.923   c0.025-0.45-0.254-0.861-0.682-1.003c-1.435-0.478-4.204-3.871-5.858-5.898c-0.202-0.247-0.393-0.481-0.574-0.701   c2.493-0.137,6.185-0.357,6.773-0.442c0.457-0.066,0.809-0.437,0.852-0.896c0.044-0.459-0.232-0.889-0.669-1.039   c-2.57-0.886-5.378-4.394-7.854-7.488c-0.855-1.069-1.688-2.109-2.505-3.045c1.611,0.447,3.366,0.968,4.741,1.376   c3.076,0.914,3.076,0.914,3.518,0.571c0.255-0.197,0.399-0.505,0.389-0.827c-0.005-0.16-0.049-0.317-0.128-0.457   c-0.246-0.438-0.717-1.218-1.168-1.957c3.068,0.473,8.77,1.481,12.105,2.869c0.036,0.05,0.066,0.104,0.104,0.154   c0.33,0.441,0.957,0.532,1.399,0.202c0.298-0.223,0.421-0.58,0.378-0.924c0.057-0.423-0.149-0.85-0.558-1.038   c-0.002-0.001-0.004-0.001-0.006-0.002c-2.815-4.237-2.736-9.678-2.55-11.944c2.961,0.721,6.054,1.708,6.534,2.232   c0.256,0.303,0.666,0.426,1.046,0.316c0.38-0.111,0.659-0.436,0.711-0.829c0.297-2.244,4.21-13.45,6.711-17.975   c3.239,3.524,6.175,13.04,6.575,15.798c0.052,0.358,0.293,0.661,0.631,0.79s0.72,0.067,0.998-0.165   c0.907-0.755,3.102-1.412,4.49-1.753c0.83,2.352,2.937,9.55-0.246,14.647c-0.242,0.389-0.189,0.892,0.127,1.222   c0.317,0.33,0.817,0.403,1.216,0.177c1.312-0.746,5.95-3.718,8.213-5.175l0.452,2.402c0.058,0.306,0.254,0.567,0.531,0.708   c0.277,0.14,0.605,0.143,0.885,0.008c0,0,4.818-2.319,7.921-3.816C800.52,40.084,799.009,45.999,797.767,48.416z"/><path d="M777.397,47.145c-0.473-0.292-1.086-0.147-1.378,0.321c-1.293,2.081-3.722,3.252-6.489,3.123   c-2.833-0.129-5.357-1.598-6.434-3.742c-0.246-0.493-0.849-0.691-1.342-0.446c-0.494,0.248-0.693,0.849-0.445,1.342   c1.416,2.823,4.531,4.679,8.129,4.843c0.168,0.008,0.335,0.012,0.501,0.012c3.296,0,6.179-1.501,7.779-4.077   C778.01,48.053,777.866,47.437,777.397,47.145z"/><path d="M773.188,42.354c0.55-0.5,1.055-0.733,1.411-0.664c0.337,0.067,0.681,0.439,0.969,1.049c0.17,0.362,0.53,0.574,0.905,0.574   c0.143,0,0.287-0.03,0.425-0.095c0.5-0.236,0.714-0.832,0.479-1.331c-0.724-1.536-1.697-2.021-2.388-2.159   c-0.705-0.14-1.826-0.055-3.146,1.146c-0.408,0.372-0.438,1.004-0.066,1.413C772.147,42.696,772.78,42.726,773.188,42.354z"/><path d="M763.668,43.545c0.318,0,0.631-0.151,0.824-0.433c0.517-0.749,1.057-1.174,1.521-1.196c0.55-0.043,0.991,0.426,1.312,0.807   c0.355,0.422,0.985,0.477,1.409,0.122c0.423-0.355,0.478-0.986,0.122-1.409c-1.108-1.318-2.221-1.557-2.939-1.518   c-0.781,0.038-1.947,0.426-3.072,2.061c-0.313,0.455-0.199,1.077,0.256,1.391C763.275,43.488,763.473,43.545,763.668,43.545z"/></g><g><path d="M891.108,33.188c0.177,0,0.355-0.004,0.535-0.012c3.837-0.175,7.158-2.153,8.666-5.161   c0.248-0.494,0.049-1.095-0.445-1.342c-0.492-0.246-1.095-0.048-1.342,0.446c-1.167,2.326-3.902,3.919-6.971,4.059   c-3.003,0.141-5.632-1.13-7.036-3.389c-0.291-0.468-0.906-0.615-1.378-0.321c-0.469,0.292-0.612,0.908-0.321,1.377   C884.522,31.588,887.594,33.188,891.108,33.188z"/><path d="M884.739,23.971c0.138,0.065,0.283,0.096,0.426,0.096c0.375,0,0.734-0.212,0.905-0.573   c0.319-0.677,0.708-1.092,1.094-1.168c0.415-0.079,0.972,0.178,1.579,0.731c0.408,0.373,1.041,0.343,1.412-0.066   c0.372-0.408,0.343-1.041-0.066-1.413c-1.395-1.27-2.573-1.359-3.313-1.214c-0.725,0.144-1.749,0.655-2.514,2.277   C884.026,23.139,884.24,23.735,884.739,23.971z"/><path d="M894.932,23.46c0.355-0.423,0.896-0.927,1.47-0.894c0.522,0.025,1.123,0.493,1.691,1.317   c0.193,0.282,0.506,0.433,0.824,0.433c0.195,0,0.393-0.057,0.566-0.176c0.455-0.313,0.569-0.936,0.256-1.391   c-1.191-1.731-2.42-2.141-3.242-2.181c-0.748-0.04-1.924,0.209-3.097,1.604c-0.355,0.422-0.301,1.053,0.122,1.409   C893.946,23.938,894.576,23.883,894.932,23.46z"/><path d="M922.414,48.65c-2.125,0-4.313,0.635-6.526,1.893c0.063-3.884-1.074-7.235-3.337-9.778   c-0.04-0.045-0.088-0.084-0.129-0.129c2.133-6.021,1.611-12.5-1.446-17.8c-2.952-5.118-7.907-8.531-13.951-9.612   c-0.003,0-0.006,0.001-0.009,0c-0.004,0-0.006-0.002-0.009-0.003c-7.551-1.21-14.401,0.611-19.291,5.125   c-4.263,3.934-6.551,9.456-6.373,15.278c-0.036,0.004-0.071,0.002-0.107,0.007c-4.928,0.609-9.023,3.982-10.435,8.593   c-0.841,2.747-0.584,5.504,0.654,7.863c-3.291-0.509-6.901,1.021-9.906,4.21c-3.085,3.273-4.943,7.648-4.735,11.146   c0.533,8.994,10.027,13.847,18.69,13.847c4.961,0,9.321-1.492,12.41-4.224c3.542,3.731,10.293,7.419,16.802,7.419   c4.19,0,7.509-1.562,9.679-4.536c2.123,2.131,4.266,2.613,5.771,2.614h0.001c2.094,0,4.138-0.923,5.753-2.6   c1.771-1.837,2.792-4.327,2.853-6.91c5.536,1.28,9.961,0.392,12.582-2.473c1.596-1.744,2.475-4.204,2.475-6.928   C933.828,55.373,929.241,48.65,922.414,48.65z M879.072,19.815c4.428-4.087,10.677-5.728,17.606-4.621   c5.45,0.977,9.913,4.045,12.564,8.642c2.629,4.558,3.181,10.093,1.561,15.331c-2.442-1.883-5.58-2.946-8.935-2.946   c-4.076,0-7.83,1.546-10.3,4.243c-1.525,1.665-2.501,3.695-2.896,5.988c-3.293-5.975-7.804-12.651-15.332-12.902   C873.186,28.312,875.243,23.349,879.072,19.815z M929.878,67.229c-2.241,2.449-6.211,3.047-11.38,1.696   c-0.377-0.099-0.771,0.029-1.02,0.325l-0.478,0.57c-0.159,0.189-0.242,0.432-0.232,0.679c0.084,2.264-0.751,4.478-2.289,6.075   c-1.235,1.281-2.768,1.987-4.313,1.987h-0.001c-1.837,0-3.607-0.998-5.118-2.883c-0.207-0.259-0.534-0.395-0.859-0.372   c-0.33,0.026-0.626,0.214-0.79,0.503c-1.765,3.102-4.686,4.674-8.682,4.674c-6.132,0-12.936-3.81-15.971-7.493   c-0.181-0.22-0.446-0.352-0.73-0.363c-0.014,0-0.027-0.001-0.041-0.001c-0.27,0-0.528,0.109-0.718,0.303   c-2.69,2.771-6.975,4.359-11.752,4.359c-7.749,0-16.233-4.193-16.694-11.966c-0.174-2.928,1.512-6.809,4.195-9.656   c3.484-3.699,7.645-4.724,10.954-2.457c0.295,0.254,0.608,0.5,0.941,0.736c0.436,0.306,1.033,0.221,1.362-0.196   c0.33-0.417,0.275-1.02-0.123-1.371c-0.309-0.271-0.627-0.523-0.949-0.749c-2.593-2.284-3.495-5.497-2.478-8.823   c1.181-3.857,4.622-6.681,8.769-7.193c0.481-0.06,0.963-0.09,1.43-0.09c7.719,0,12.147,8.345,15.381,14.438l0.358,0.675   c0.224,0.42,0.715,0.626,1.167,0.488c0.456-0.135,0.754-0.573,0.712-1.046c-0.29-3.296,0.58-6.155,2.515-8.268   c2.092-2.284,5.309-3.594,8.825-3.594c3.647,0,6.996,1.412,9.188,3.875c2.257,2.535,3.193,6.075,2.708,10.238   c-0.046,0.392,0.144,0.774,0.483,0.976c0.339,0.201,0.766,0.184,1.088-0.044c2.449-1.735,4.831-2.614,7.078-2.614   c5.631,0,9.414,5.688,9.414,11.001C931.828,63.224,931.489,65.468,929.878,67.229z"/></g><g><path d="M1038.571,25.652c-6.569-7.18-16.712-11.298-27.826-11.298c-11.047,0-21.256,4.101-28.01,11.25   c-6.308,6.677-9.327,15.711-8.733,26.127c0.024,0.43,0.321,0.796,0.737,0.908c0.417,0.114,0.857-0.054,1.095-0.414   c0.924-1.398,2.783-3.742,4.852-3.742c1.643,0,3.307,1.461,4.945,4.344c0.191,0.337,0.564,0.538,0.945,0.503   c0.386-0.029,0.72-0.279,0.858-0.64c1.213-3.177,3.271-4.926,5.795-4.926c2.828,0,5.653,2.227,6.297,4.965   c0.095,0.401,0.425,0.703,0.833,0.761c0.047,0.006,0.094,0.01,0.141,0.01c0.357,0,0.692-0.191,0.871-0.509   c1.827-3.239,4.86-5.521,8.074-6.203l0,0c0.261,5.322-0.427,10.862-1.092,16.22c-0.712,5.733-1.448,11.662-1.078,17.523   c0.313,4.961,2.937,8.644,6.237,8.757c0.039,0.001,0.08,0.002,0.125,0.002c1.303,0,4.987-0.672,5.959-8.018   c0.108-0.821-0.47-1.575-1.291-1.684c-0.818-0.106-1.575,0.47-1.684,1.291c-0.501,3.791-1.838,5.451-3.007,5.411   c-1.2-0.041-3.094-1.959-3.346-5.948c-0.353-5.581,0.366-11.368,1.061-16.963c0.682-5.482,1.385-11.15,1.111-16.729   c3.287,0.378,6.104,2.57,8,6.303c0.167,0.33,0.503,0.54,0.872,0.547c0.358-0.001,0.713-0.19,0.893-0.513   c1.881-3.373,3.876-5.083,5.931-5.083c2.441,0,4.64,2.423,5.733,3.867c0.21,0.279,0.545,0.425,0.901,0.391   c0.349-0.037,0.652-0.253,0.801-0.57c1.094-2.332,2.653-3.669,4.28-3.669c1.58,0,3.235,1.219,4.66,3.432   c0.23,0.358,0.66,0.53,1.08,0.43c0.415-0.103,0.719-0.457,0.757-0.883C1047.237,40.915,1044.548,32.183,1038.571,25.652z    M1044.504,48.139c-1.437-1.444-3.036-2.217-4.651-2.217c-2.05,0-3.947,1.245-5.353,3.467c-1.595-1.784-3.79-3.485-6.363-3.485   c-2.464,0-4.738,1.553-6.775,4.624c-2.442-3.855-5.921-5.955-9.938-5.955s-8.043,2.209-10.699,5.758   c-1.462-2.672-4.431-4.566-7.495-4.566c-2.836,0-5.267,1.61-6.862,4.482c-1.754-2.499-3.659-3.762-5.682-3.762   c-1.86,0-3.472,1.072-4.756,2.406c0.063-8.698,2.893-16.231,8.259-21.912c6.378-6.751,16.058-10.624,26.557-10.624   c10.555,0,20.159,3.881,26.351,10.648C1042.166,32.542,1044.703,39.809,1044.504,48.139z"/><path d="M1018.416,28.581c-0.462-0.299-1.084-0.165-1.382,0.298c-1.188,1.839-3.625,2.919-6.217,2.761   c-2.53-0.159-4.619-1.458-5.588-3.475c-0.239-0.497-0.835-0.709-1.334-0.468c-0.498,0.239-0.708,0.836-0.469,1.334   c1.286,2.678,4.003,4.4,7.266,4.604c0.221,0.014,0.439,0.021,0.656,0.021c3.092,0,5.873-1.38,7.365-3.694   C1019.014,29.499,1018.88,28.88,1018.416,28.581z"/><path d="M1004.723,25.006c0.162,0.1,0.343,0.147,0.521,0.147c0.337,0,0.665-0.17,0.854-0.478c0.312-0.511,0.645-0.806,0.938-0.832   c0.329-0.019,0.735,0.238,1.166,0.726c0.366,0.415,0.998,0.453,1.411,0.087c0.414-0.366,0.453-0.998,0.087-1.412   c-1.112-1.26-2.157-1.454-2.839-1.394c-0.665,0.058-1.634,0.415-2.47,1.78C1004.103,24.102,1004.251,24.718,1004.723,25.006z"/><path d="M1016.142,22.168c-0.681-0.109-1.743-0.001-2.916,1.122c-0.399,0.382-0.413,1.015-0.031,1.414   c0.383,0.399,1.018,0.412,1.414,0.031c0.321-0.307,0.786-0.656,1.223-0.591c0.401,0.063,0.836,0.494,1.224,1.213   c0.181,0.335,0.525,0.525,0.881,0.525c0.16,0,0.323-0.039,0.474-0.12c0.486-0.262,0.668-0.869,0.405-1.355   C1017.929,22.766,1016.872,22.284,1016.142,22.168z"/></g></svg>